<svg id="Camada_1" data-name="Camada 1" xmlns="http://www.w3.org/2000/svg" xmlns:xlink="http://www.w3.org/1999/xlink" viewBox="0 0 30.99 27.01"><defs><style>.cls-1{fill:#fff;}.cls-1,.cls-3{fill-rule:evenodd;}.cls-2{mask:url(#mask);}.cls-3{fill:#c9c9c9;}</style><mask id="mask" x="22.26" y="13.25" width="8.74" height="13.66" maskUnits="userSpaceOnUse"><g transform="translate(-44.34 -39.45)"><g id="b"><path id="a" class="cls-1" d="M66.59,52.7h8.74V66.36H66.59Z"/></g></g></mask></defs><title>logo-white</title><path class="cls-1" d="M59.56,62.1a.7.7,0,0,0,.36.1.73.73,0,0,0,.63-.36.71.71,0,0,0-.26-1h0l-7.07-4V54.2l5.69,3.27a1.14,1.14,0,0,1,0-.52,1.05,1.05,0,0,1,.49-.64l.2-.11-6.38-3.66V44.43a.72.72,0,0,0-.37-.62l-7.43-4.26a.71.71,0,0,0-.72,0,.69.69,0,0,0-.36.62V48.7a.72.72,0,0,0,.72.72h0a.72.72,0,0,0,.72-.72h0V41.42l2.27,1.3v8.1a.72.72,0,0,0,.73.72h0a.72.72,0,0,0,.72-.72V43.55l2.27,1.3V61.48a.71.71,0,0,0,.36.62l7.43,4.26a.68.68,0,0,0,.36.1.73.73,0,0,0,.63-.36.71.71,0,0,0-.26-1h0l-7.07-4.05v-2.6Z" transform="translate(-44.34 -39.45)"/><g class="cls-2"><path class="cls-1" d="M73.9,60.17,68,56.76V54.17l5.88,3.41v2.59ZM75,56.55,68.33,52.7v.23a1,1,0,0,1-.52.9l-1.22.7v6.88a.72.72,0,0,0,1.43,0v-3l5.88,3.41v3.82a.72.72,0,0,0,.72.72h0a.71.71,0,0,0,.71-.72h0V57.17A.73.73,0,0,0,75,56.55Z" transform="translate(-44.34 -39.45)"/></g><path class="cls-3" d="M59.67,53.56a.71.71,0,0,0,.72,0l6.31-3.62v2.59l-7,4a.72.72,0,0,0-.26,1h0a.71.71,0,0,0,1,.27l7.39-4.25a.72.72,0,0,0,.36-.62V48.69a.73.73,0,0,0-.36-.62.71.71,0,0,0-.72,0L60.75,51.7V49.11l6.71-3.86c.45-.26.68-.39.68-.81a.71.71,0,0,0-.72-.71.75.75,0,0,0-.38.1l-7.37,4.24a.72.72,0,0,0-.36.62v4.25a.72.72,0,0,0,.36.62" transform="translate(-44.34 -39.45)"/></svg>